<svg xmlns="http://www.w3.org/2000/svg" width="1920" height="937" style="cursor: move;"><g transform="translate(111.14729268430386,63.593718679700885) scale(1.0000000000000009)"><path class="link" marker-end="url(#arrow)" d="M800,378.5, 980,118.5" style="stroke-width: 0.38; stroke-opacity: 1; stroke: rgb(80, 80, 80);"></path><path class="link" marker-end="url(#arrow)" d="M800,378.5, 980,158.5" style="stroke-width: 0.38; stroke-opacity: 1; stroke: rgb(80, 80, 80);"></path><path class="link" marker-end="url(#arrow)" d="M800,378.5, 980,198.5" style="stroke-width: 0.38; stroke-opacity: 1; stroke: rgb(80, 80, 80);"></path><path class="link" marker-end="url(#arrow)" d="M800,378.5, 980,238.5" style="stroke-width: 0.38; stroke-opacity: 1; stroke: rgb(80, 80, 80);"></path><path class="link" marker-end="url(#arrow)" d="M800,378.5, 980,278.5" style="stroke-width: 0.38; stroke-opacity: 1; stroke: rgb(80, 80, 80);"></path><path class="link" marker-end="url(#arrow)" d="M800,378.5, 980,318.5" style="stroke-width: 0.38; stroke-opacity: 1; stroke: rgb(80, 80, 80);"></path><path class="link" marker-end="url(#arrow)" d="M800,378.5, 980,358.5" style="stroke-width: 0.38; stroke-opacity: 1; stroke: rgb(80, 80, 80);"></path><path class="link" marker-end="url(#arrow)" d="M800,378.5, 980,398.5" style="stroke-width: 0.38; stroke-opacity: 1; stroke: rgb(80, 80, 80);"></path><path class="link" marker-end="url(#arrow)" d="M800,378.5, 980,438.5" style="stroke-width: 0.38; stroke-opacity: 1; stroke: rgb(80, 80, 80);"></path><path class="link" marker-end="url(#arrow)" d="M800,378.5, 980,478.5" style="stroke-width: 0.38; stroke-opacity: 1; stroke: rgb(80, 80, 80);"></path><path class="link" marker-end="url(#arrow)" d="M800,378.5, 980,518.5" style="stroke-width: 0.38; stroke-opacity: 1; stroke: rgb(80, 80, 80);"></path><path class="link" marker-end="url(#arrow)" d="M800,418.5, 980,118.5" style="stroke-width: 0.38; stroke-opacity: 1; stroke: rgb(80, 80, 80);"></path><path class="link" marker-end="url(#arrow)" d="M800,418.5, 980,158.5" style="stroke-width: 0.38; stroke-opacity: 1; stroke: rgb(80, 80, 80);"></path><path class="link" marker-end="url(#arrow)" d="M800,418.5, 980,198.5" style="stroke-width: 0.38; stroke-opacity: 1; stroke: rgb(80, 80, 80);"></path><path class="link" marker-end="url(#arrow)" d="M800,418.5, 980,238.5" style="stroke-width: 0.38; stroke-opacity: 1; stroke: rgb(80, 80, 80);"></path><path class="link" marker-end="url(#arrow)" d="M800,418.5, 980,278.5" style="stroke-width: 0.38; stroke-opacity: 1; stroke: rgb(80, 80, 80);"></path><path class="link" marker-end="url(#arrow)" d="M800,418.5, 980,318.5" style="stroke-width: 0.38; stroke-opacity: 1; stroke: rgb(80, 80, 80);"></path><path class="link" marker-end="url(#arrow)" d="M800,418.5, 980,358.5" style="stroke-width: 0.38; stroke-opacity: 1; stroke: rgb(80, 80, 80);"></path><path class="link" marker-end="url(#arrow)" d="M800,418.5, 980,398.5" style="stroke-width: 0.38; stroke-opacity: 1; stroke: rgb(80, 80, 80);"></path><path class="link" marker-end="url(#arrow)" d="M800,418.5, 980,438.5" style="stroke-width: 0.38; stroke-opacity: 1; stroke: rgb(80, 80, 80);"></path><path class="link" marker-end="url(#arrow)" d="M800,418.5, 980,478.5" style="stroke-width: 0.38; stroke-opacity: 1; stroke: rgb(80, 80, 80);"></path><path class="link" marker-end="url(#arrow)" d="M800,418.5, 980,518.5" style="stroke-width: 0.38; stroke-opacity: 1; stroke: rgb(80, 80, 80);"></path><path class="link" marker-end="url(#arrow)" d="M800,458.5, 980,118.5" style="stroke-width: 0.38; stroke-opacity: 1; stroke: rgb(80, 80, 80);"></path><path class="link" marker-end="url(#arrow)" d="M800,458.5, 980,158.5" style="stroke-width: 0.38; stroke-opacity: 1; stroke: rgb(80, 80, 80);"></path><path class="link" marker-end="url(#arrow)" d="M800,458.5, 980,198.5" style="stroke-width: 0.38; stroke-opacity: 1; stroke: rgb(80, 80, 80);"></path><path class="link" marker-end="url(#arrow)" d="M800,458.5, 980,238.5" style="stroke-width: 0.38; stroke-opacity: 1; stroke: rgb(80, 80, 80);"></path><path class="link" marker-end="url(#arrow)" d="M800,458.5, 980,278.5" style="stroke-width: 0.38; stroke-opacity: 1; stroke: rgb(80, 80, 80);"></path><path class="link" marker-end="url(#arrow)" d="M800,458.5, 980,318.5" style="stroke-width: 0.38; stroke-opacity: 1; stroke: rgb(80, 80, 80);"></path><path class="link" marker-end="url(#arrow)" d="M800,458.5, 980,358.5" style="stroke-width: 0.38; stroke-opacity: 1; stroke: rgb(80, 80, 80);"></path><path class="link" marker-end="url(#arrow)" d="M800,458.5, 980,398.5" style="stroke-width: 0.38; stroke-opacity: 1; stroke: rgb(80, 80, 80);"></path><path class="link" marker-end="url(#arrow)" d="M800,458.5, 980,438.5" style="stroke-width: 0.38; stroke-opacity: 1; stroke: rgb(80, 80, 80);"></path><path class="link" marker-end="url(#arrow)" d="M800,458.5, 980,478.5" style="stroke-width: 0.38; stroke-opacity: 1; stroke: rgb(80, 80, 80);"></path><path class="link" marker-end="url(#arrow)" d="M800,458.5, 980,518.5" style="stroke-width: 0.38; stroke-opacity: 1; stroke: rgb(80, 80, 80);"></path><path class="link" marker-end="url(#arrow)" d="M800,498.5, 980,118.5" style="stroke-width: 0.38; stroke-opacity: 1; stroke: rgb(80, 80, 80);"></path><path class="link" marker-end="url(#arrow)" d="M800,498.5, 980,158.5" style="stroke-width: 0.38; stroke-opacity: 1; stroke: rgb(80, 80, 80);"></path><path class="link" marker-end="url(#arrow)" d="M800,498.5, 980,198.5" style="stroke-width: 0.38; stroke-opacity: 1; stroke: rgb(80, 80, 80);"></path><path class="link" marker-end="url(#arrow)" d="M800,498.5, 980,238.5" style="stroke-width: 0.38; stroke-opacity: 1; stroke: rgb(80, 80, 80);"></path><path class="link" marker-end="url(#arrow)" d="M800,498.5, 980,278.5" style="stroke-width: 0.38; stroke-opacity: 1; stroke: rgb(80, 80, 80);"></path><path class="link" marker-end="url(#arrow)" d="M800,498.5, 980,318.5" style="stroke-width: 0.38; stroke-opacity: 1; stroke: rgb(80, 80, 80);"></path><path class="link" marker-end="url(#arrow)" d="M800,498.5, 980,358.5" style="stroke-width: 0.38; stroke-opacity: 1; stroke: rgb(80, 80, 80);"></path><path class="link" marker-end="url(#arrow)" d="M800,498.5, 980,398.5" style="stroke-width: 0.38; stroke-opacity: 1; stroke: rgb(80, 80, 80);"></path><path class="link" marker-end="url(#arrow)" d="M800,498.5, 980,438.5" style="stroke-width: 0.38; stroke-opacity: 1; stroke: rgb(80, 80, 80);"></path><path class="link" marker-end="url(#arrow)" d="M800,498.5, 980,478.5" style="stroke-width: 0.38; stroke-opacity: 1; stroke: rgb(80, 80, 80);"></path><path class="link" marker-end="url(#arrow)" d="M800,498.5, 980,518.5" style="stroke-width: 0.38; stroke-opacity: 1; stroke: rgb(80, 80, 80);"></path><path class="link" marker-end="url(#arrow)" d="M800,538.5, 980,118.5" style="stroke-width: 0.38; stroke-opacity: 1; stroke: rgb(80, 80, 80);"></path><path class="link" marker-end="url(#arrow)" d="M800,538.5, 980,158.5" style="stroke-width: 0.38; stroke-opacity: 1; stroke: rgb(80, 80, 80);"></path><path class="link" marker-end="url(#arrow)" d="M800,538.5, 980,198.5" style="stroke-width: 0.38; stroke-opacity: 1; stroke: rgb(80, 80, 80);"></path><path class="link" marker-end="url(#arrow)" d="M800,538.5, 980,238.5" style="stroke-width: 0.38; stroke-opacity: 1; stroke: rgb(80, 80, 80);"></path><path class="link" marker-end="url(#arrow)" d="M800,538.5, 980,278.5" style="stroke-width: 0.38; stroke-opacity: 1; stroke: rgb(80, 80, 80);"></path><path class="link" marker-end="url(#arrow)" d="M800,538.5, 980,318.5" style="stroke-width: 0.38; stroke-opacity: 1; stroke: rgb(80, 80, 80);"></path><path class="link" marker-end="url(#arrow)" d="M800,538.5, 980,358.5" style="stroke-width: 0.38; stroke-opacity: 1; stroke: rgb(80, 80, 80);"></path><path class="link" marker-end="url(#arrow)" d="M800,538.5, 980,398.5" style="stroke-width: 0.38; stroke-opacity: 1; stroke: rgb(80, 80, 80);"></path><path class="link" marker-end="url(#arrow)" d="M800,538.5, 980,438.5" style="stroke-width: 0.38; stroke-opacity: 1; stroke: rgb(80, 80, 80);"></path><path class="link" marker-end="url(#arrow)" d="M800,538.5, 980,478.5" style="stroke-width: 0.38; stroke-opacity: 1; stroke: rgb(80, 80, 80);"></path><path class="link" marker-end="url(#arrow)" d="M800,538.5, 980,518.5" style="stroke-width: 0.38; stroke-opacity: 1; stroke: rgb(80, 80, 80);"></path><path class="link" marker-end="url(#arrow)" d="M980,78.5, 1160,278.5" style="stroke-width: 0.38; stroke-opacity: 1; stroke: rgb(80, 80, 80);"></path><path class="link" marker-end="url(#arrow)" d="M980,78.5, 1160,318.5" style="stroke-width: 0.38; stroke-opacity: 1; stroke: rgb(80, 80, 80);"></path><path class="link" marker-end="url(#arrow)" d="M980,78.5, 1160,358.5" style="stroke-width: 0.38; stroke-opacity: 1; stroke: rgb(80, 80, 80);"></path><path class="link" marker-end="url(#arrow)" d="M980,78.5, 1160,398.5" style="stroke-width: 0.38; stroke-opacity: 1; stroke: rgb(80, 80, 80);"></path><path class="link" marker-end="url(#arrow)" d="M980,78.5, 1160,438.5" style="stroke-width: 0.38; stroke-opacity: 1; stroke: rgb(80, 80, 80);"></path><path class="link" marker-end="url(#arrow)" d="M980,118.5, 1160,278.5" style="stroke-width: 0.38; stroke-opacity: 1; stroke: rgb(80, 80, 80);"></path><path class="link" marker-end="url(#arrow)" d="M980,118.5, 1160,318.5" style="stroke-width: 0.38; stroke-opacity: 1; stroke: rgb(80, 80, 80);"></path><path class="link" marker-end="url(#arrow)" d="M980,118.5, 1160,358.5" style="stroke-width: 0.38; stroke-opacity: 1; stroke: rgb(80, 80, 80);"></path><path class="link" marker-end="url(#arrow)" d="M980,118.5, 1160,398.5" style="stroke-width: 0.38; stroke-opacity: 1; stroke: rgb(80, 80, 80);"></path><path class="link" marker-end="url(#arrow)" d="M980,118.5, 1160,438.5" style="stroke-width: 0.38; stroke-opacity: 1; stroke: rgb(80, 80, 80);"></path><path class="link" marker-end="url(#arrow)" d="M980,158.5, 1160,278.5" style="stroke-width: 0.38; stroke-opacity: 1; stroke: rgb(80, 80, 80);"></path><path class="link" marker-end="url(#arrow)" d="M980,158.5, 1160,318.5" style="stroke-width: 0.38; stroke-opacity: 1; stroke: rgb(80, 80, 80);"></path><path class="link" marker-end="url(#arrow)" d="M980,158.5, 1160,358.5" style="stroke-width: 0.38; stroke-opacity: 1; stroke: rgb(80, 80, 80);"></path><path class="link" marker-end="url(#arrow)" d="M980,158.5, 1160,398.5" style="stroke-width: 0.38; stroke-opacity: 1; stroke: rgb(80, 80, 80);"></path><path class="link" marker-end="url(#arrow)" d="M980,158.5, 1160,438.5" style="stroke-width: 0.38; stroke-opacity: 1; stroke: rgb(80, 80, 80);"></path><path class="link" marker-end="url(#arrow)" d="M980,198.5, 1160,278.5" style="stroke-width: 0.38; stroke-opacity: 1; stroke: rgb(80, 80, 80);"></path><path class="link" marker-end="url(#arrow)" d="M980,198.5, 1160,318.5" style="stroke-width: 0.38; stroke-opacity: 1; stroke: rgb(80, 80, 80);"></path><path class="link" marker-end="url(#arrow)" d="M980,198.5, 1160,358.5" style="stroke-width: 0.38; stroke-opacity: 1; stroke: rgb(80, 80, 80);"></path><path class="link" marker-end="url(#arrow)" d="M980,198.5, 1160,398.5" style="stroke-width: 0.38; stroke-opacity: 1; stroke: rgb(80, 80, 80);"></path><path class="link" marker-end="url(#arrow)" d="M980,198.5, 1160,438.5" style="stroke-width: 0.38; stroke-opacity: 1; stroke: rgb(80, 80, 80);"></path><path class="link" marker-end="url(#arrow)" d="M980,238.5, 1160,278.5" style="stroke-width: 0.38; stroke-opacity: 1; stroke: rgb(80, 80, 80);"></path><path class="link" marker-end="url(#arrow)" d="M980,238.5, 1160,318.5" style="stroke-width: 0.38; stroke-opacity: 1; stroke: rgb(80, 80, 80);"></path><path class="link" marker-end="url(#arrow)" d="M980,238.5, 1160,358.5" style="stroke-width: 0.38; stroke-opacity: 1; stroke: rgb(80, 80, 80);"></path><path class="link" marker-end="url(#arrow)" d="M980,238.5, 1160,398.5" style="stroke-width: 0.38; stroke-opacity: 1; stroke: rgb(80, 80, 80);"></path><path class="link" marker-end="url(#arrow)" d="M980,238.5, 1160,438.5" style="stroke-width: 0.38; stroke-opacity: 1; stroke: rgb(80, 80, 80);"></path><path class="link" marker-end="url(#arrow)" d="M980,278.5, 1160,278.5" style="stroke-width: 0.38; stroke-opacity: 1; stroke: rgb(80, 80, 80);"></path><path class="link" marker-end="url(#arrow)" d="M980,278.5, 1160,318.5" style="stroke-width: 0.38; stroke-opacity: 1; stroke: rgb(80, 80, 80);"></path><path class="link" marker-end="url(#arrow)" d="M980,278.5, 1160,358.5" style="stroke-width: 0.38; stroke-opacity: 1; stroke: rgb(80, 80, 80);"></path><path class="link" marker-end="url(#arrow)" d="M980,278.5, 1160,398.5" style="stroke-width: 0.38; stroke-opacity: 1; stroke: rgb(80, 80, 80);"></path><path class="link" marker-end="url(#arrow)" d="M980,278.5, 1160,438.5" style="stroke-width: 0.38; stroke-opacity: 1; stroke: rgb(80, 80, 80);"></path><path class="link" marker-end="url(#arrow)" d="M980,318.5, 1160,278.5" style="stroke-width: 0.38; stroke-opacity: 1; stroke: rgb(80, 80, 80);"></path><path class="link" marker-end="url(#arrow)" d="M980,318.5, 1160,318.5" style="stroke-width: 0.38; stroke-opacity: 1; stroke: rgb(80, 80, 80);"></path><path class="link" marker-end="url(#arrow)" d="M980,318.5, 1160,358.5" style="stroke-width: 0.38; stroke-opacity: 1; stroke: rgb(80, 80, 80);"></path><path class="link" marker-end="url(#arrow)" d="M980,318.5, 1160,398.5" style="stroke-width: 0.38; stroke-opacity: 1; stroke: rgb(80, 80, 80);"></path><path class="link" marker-end="url(#arrow)" d="M980,318.5, 1160,438.5" style="stroke-width: 0.38; stroke-opacity: 1; stroke: rgb(80, 80, 80);"></path><path class="link" marker-end="url(#arrow)" d="M980,358.5, 1160,278.5" style="stroke-width: 0.38; stroke-opacity: 1; stroke: rgb(80, 80, 80);"></path><path class="link" marker-end="url(#arrow)" d="M980,358.5, 1160,318.5" style="stroke-width: 0.38; stroke-opacity: 1; stroke: rgb(80, 80, 80);"></path><path class="link" marker-end="url(#arrow)" d="M980,358.5, 1160,358.5" style="stroke-width: 0.38; stroke-opacity: 1; stroke: rgb(80, 80, 80);"></path><path class="link" marker-end="url(#arrow)" d="M980,358.5, 1160,398.5" style="stroke-width: 0.38; stroke-opacity: 1; stroke: rgb(80, 80, 80);"></path><path class="link" marker-end="url(#arrow)" d="M980,358.5, 1160,438.5" style="stroke-width: 0.38; stroke-opacity: 1; stroke: rgb(80, 80, 80);"></path><path class="link" marker-end="url(#arrow)" d="M980,398.5, 1160,278.5" style="stroke-width: 0.38; stroke-opacity: 1; stroke: rgb(80, 80, 80);"></path><path class="link" marker-end="url(#arrow)" d="M980,398.5, 1160,318.5" style="stroke-width: 0.38; stroke-opacity: 1; stroke: rgb(80, 80, 80);"></path><path class="link" marker-end="url(#arrow)" d="M980,398.5, 1160,358.5" style="stroke-width: 0.38; stroke-opacity: 1; stroke: rgb(80, 80, 80);"></path><path class="link" marker-end="url(#arrow)" d="M980,398.5, 1160,398.5" style="stroke-width: 0.38; stroke-opacity: 1; stroke: rgb(80, 80, 80);"></path><path class="link" marker-end="url(#arrow)" d="M980,398.5, 1160,438.5" style="stroke-width: 0.38; stroke-opacity: 1; stroke: rgb(80, 80, 80);"></path><path class="link" marker-end="url(#arrow)" d="M980,438.5, 1160,278.5" style="stroke-width: 0.38; stroke-opacity: 1; stroke: rgb(80, 80, 80);"></path><path class="link" marker-end="url(#arrow)" d="M980,438.5, 1160,318.5" style="stroke-width: 0.38; stroke-opacity: 1; stroke: rgb(80, 80, 80);"></path><path class="link" marker-end="url(#arrow)" d="M980,438.5, 1160,358.5" style="stroke-width: 0.38; stroke-opacity: 1; stroke: rgb(80, 80, 80);"></path><path class="link" marker-end="url(#arrow)" d="M980,438.5, 1160,398.5" style="stroke-width: 0.38; stroke-opacity: 1; stroke: rgb(80, 80, 80);"></path><path class="link" marker-end="url(#arrow)" d="M980,438.5, 1160,438.5" style="stroke-width: 0.38; stroke-opacity: 1; stroke: rgb(80, 80, 80);"></path><path class="link" marker-end="url(#arrow)" d="M980,478.5, 1160,278.5" style="stroke-width: 0.38; stroke-opacity: 1; stroke: rgb(80, 80, 80);"></path><path class="link" marker-end="url(#arrow)" d="M980,478.5, 1160,318.5" style="stroke-width: 0.38; stroke-opacity: 1; stroke: rgb(80, 80, 80);"></path><path class="link" marker-end="url(#arrow)" d="M980,478.5, 1160,358.5" style="stroke-width: 0.38; stroke-opacity: 1; stroke: rgb(80, 80, 80);"></path><path class="link" marker-end="url(#arrow)" d="M980,478.5, 1160,398.5" style="stroke-width: 0.38; stroke-opacity: 1; stroke: rgb(80, 80, 80);"></path><path class="link" marker-end="url(#arrow)" d="M980,478.5, 1160,438.5" style="stroke-width: 0.38; stroke-opacity: 1; stroke: rgb(80, 80, 80);"></path><path class="link" marker-end="url(#arrow)" d="M980,518.5, 1160,278.5" style="stroke-width: 0.38; stroke-opacity: 1; stroke: rgb(80, 80, 80);"></path><path class="link" marker-end="url(#arrow)" d="M980,518.5, 1160,318.5" style="stroke-width: 0.38; stroke-opacity: 1; stroke: rgb(80, 80, 80);"></path><path class="link" marker-end="url(#arrow)" d="M980,518.5, 1160,358.5" style="stroke-width: 0.38; stroke-opacity: 1; stroke: rgb(80, 80, 80);"></path><path class="link" marker-end="url(#arrow)" d="M980,518.5, 1160,398.5" style="stroke-width: 0.38; stroke-opacity: 1; stroke: rgb(80, 80, 80);"></path><path class="link" marker-end="url(#arrow)" d="M980,518.5, 1160,438.5" style="stroke-width: 0.38; stroke-opacity: 1; stroke: rgb(80, 80, 80);"></path><path class="link" marker-end="url(#arrow)" d="M800,378.5, 980,558.5" style="stroke-width: 0.38; stroke-opacity: 1; stroke: rgb(80, 80, 80);"></path><path class="link" marker-end="url(#arrow)" d="M800,378.5, 980,598.5" style="stroke-width: 0.38; stroke-opacity: 1; stroke: rgb(80, 80, 80);"></path><path class="link" marker-end="url(#arrow)" d="M800,378.5, 980,638.5" style="stroke-width: 0.38; stroke-opacity: 1; stroke: rgb(80, 80, 80);"></path><path class="link" marker-end="url(#arrow)" d="M800,378.5, 980,678.5" style="stroke-width: 0.38; stroke-opacity: 1; stroke: rgb(80, 80, 80);"></path><path class="link" marker-end="url(#arrow)" d="M800,378.5, 980,718.5" style="stroke-width: 0.38; stroke-opacity: 1; stroke: rgb(80, 80, 80);"></path><path class="link" marker-end="url(#arrow)" d="M800,378.5, 980,758.5" style="stroke-width: 0.38; stroke-opacity: 1; stroke: rgb(80, 80, 80);"></path><path class="link" marker-end="url(#arrow)" d="M800,378.5, 980,798.5" style="stroke-width: 0.38; stroke-opacity: 1; stroke: rgb(80, 80, 80);"></path><path class="link" marker-end="url(#arrow)" d="M800,378.5, 980,838.5" style="stroke-width: 0.38; stroke-opacity: 1; stroke: rgb(80, 80, 80);"></path><path class="link" marker-end="url(#arrow)" d="M800,418.5, 980,558.5" style="stroke-width: 0.38; stroke-opacity: 1; stroke: rgb(80, 80, 80);"></path><path class="link" marker-end="url(#arrow)" d="M800,418.5, 980,598.5" style="stroke-width: 0.38; stroke-opacity: 1; stroke: rgb(80, 80, 80);"></path><path class="link" marker-end="url(#arrow)" d="M800,418.5, 980,638.5" style="stroke-width: 0.38; stroke-opacity: 1; stroke: rgb(80, 80, 80);"></path><path class="link" marker-end="url(#arrow)" d="M800,418.5, 980,678.5" style="stroke-width: 0.38; stroke-opacity: 1; stroke: rgb(80, 80, 80);"></path><path class="link" marker-end="url(#arrow)" d="M800,418.5, 980,718.5" style="stroke-width: 0.38; stroke-opacity: 1; stroke: rgb(80, 80, 80);"></path><path class="link" marker-end="url(#arrow)" d="M800,418.5, 980,758.5" style="stroke-width: 0.38; stroke-opacity: 1; stroke: rgb(80, 80, 80);"></path><path class="link" marker-end="url(#arrow)" d="M800,418.5, 980,798.5" style="stroke-width: 0.38; stroke-opacity: 1; stroke: rgb(80, 80, 80);"></path><path class="link" marker-end="url(#arrow)" d="M800,418.5, 980,838.5" style="stroke-width: 0.38; stroke-opacity: 1; stroke: rgb(80, 80, 80);"></path><path class="link" marker-end="url(#arrow)" d="M800,458.5, 980,558.5" style="stroke-width: 0.38; stroke-opacity: 1; stroke: rgb(80, 80, 80);"></path><path class="link" marker-end="url(#arrow)" d="M800,458.5, 980,598.5" style="stroke-width: 0.38; stroke-opacity: 1; stroke: rgb(80, 80, 80);"></path><path class="link" marker-end="url(#arrow)" d="M800,458.5, 980,638.5" style="stroke-width: 0.38; stroke-opacity: 1; stroke: rgb(80, 80, 80);"></path><path class="link" marker-end="url(#arrow)" d="M800,458.5, 980,678.5" style="stroke-width: 0.38; stroke-opacity: 1; stroke: rgb(80, 80, 80);"></path><path class="link" marker-end="url(#arrow)" d="M800,458.5, 980,718.5" style="stroke-width: 0.38; stroke-opacity: 1; stroke: rgb(80, 80, 80);"></path><path class="link" marker-end="url(#arrow)" d="M800,458.5, 980,758.5" style="stroke-width: 0.38; stroke-opacity: 1; stroke: rgb(80, 80, 80);"></path><path class="link" marker-end="url(#arrow)" d="M800,458.5, 980,798.5" style="stroke-width: 0.38; stroke-opacity: 1; stroke: rgb(80, 80, 80);"></path><path class="link" marker-end="url(#arrow)" d="M800,458.5, 980,838.5" style="stroke-width: 0.38; stroke-opacity: 1; stroke: rgb(80, 80, 80);"></path><path class="link" marker-end="url(#arrow)" d="M800,498.5, 980,558.5" style="stroke-width: 0.38; stroke-opacity: 1; stroke: rgb(80, 80, 80);"></path><path class="link" marker-end="url(#arrow)" d="M800,498.5, 980,598.5" style="stroke-width: 0.38; stroke-opacity: 1; stroke: rgb(80, 80, 80);"></path><path class="link" marker-end="url(#arrow)" d="M800,498.5, 980,638.5" style="stroke-width: 0.38; stroke-opacity: 1; stroke: rgb(80, 80, 80);"></path><path class="link" marker-end="url(#arrow)" d="M800,498.5, 980,678.5" style="stroke-width: 0.38; stroke-opacity: 1; stroke: rgb(80, 80, 80);"></path><path class="link" marker-end="url(#arrow)" d="M800,498.5, 980,718.5" style="stroke-width: 0.38; stroke-opacity: 1; stroke: rgb(80, 80, 80);"></path><path class="link" marker-end="url(#arrow)" d="M800,498.5, 980,758.5" style="stroke-width: 0.38; stroke-opacity: 1; stroke: rgb(80, 80, 80);"></path><path class="link" marker-end="url(#arrow)" d="M800,498.5, 980,798.5" style="stroke-width: 0.38; stroke-opacity: 1; stroke: rgb(80, 80, 80);"></path><path class="link" marker-end="url(#arrow)" d="M800,498.5, 980,838.5" style="stroke-width: 0.38; stroke-opacity: 1; stroke: rgb(80, 80, 80);"></path><path class="link" marker-end="url(#arrow)" d="M800,538.5, 980,558.5" style="stroke-width: 0.38; stroke-opacity: 1; stroke: rgb(80, 80, 80);"></path><path class="link" marker-end="url(#arrow)" d="M800,538.5, 980,598.5" style="stroke-width: 0.38; stroke-opacity: 1; stroke: rgb(80, 80, 80);"></path><path class="link" marker-end="url(#arrow)" d="M800,538.5, 980,638.5" style="stroke-width: 0.38; stroke-opacity: 1; stroke: rgb(80, 80, 80);"></path><path class="link" marker-end="url(#arrow)" d="M800,538.5, 980,678.5" style="stroke-width: 0.38; stroke-opacity: 1; stroke: rgb(80, 80, 80);"></path><path class="link" marker-end="url(#arrow)" d="M800,538.5, 980,718.5" style="stroke-width: 0.38; stroke-opacity: 1; stroke: rgb(80, 80, 80);"></path><path class="link" marker-end="url(#arrow)" d="M800,538.5, 980,758.5" style="stroke-width: 0.38; stroke-opacity: 1; stroke: rgb(80, 80, 80);"></path><path class="link" marker-end="url(#arrow)" d="M800,538.5, 980,798.5" style="stroke-width: 0.38; stroke-opacity: 1; stroke: rgb(80, 80, 80);"></path><path class="link" marker-end="url(#arrow)" d="M800,538.5, 980,838.5" style="stroke-width: 0.38; stroke-opacity: 1; stroke: rgb(80, 80, 80);"></path><path class="link" marker-end="url(#arrow)" d="M980,558.5, 1160,278.5" style="stroke-width: 0.38; stroke-opacity: 1; stroke: rgb(80, 80, 80);"></path><path class="link" marker-end="url(#arrow)" d="M980,558.5, 1160,318.5" style="stroke-width: 0.38; stroke-opacity: 1; stroke: rgb(80, 80, 80);"></path><path class="link" marker-end="url(#arrow)" d="M980,558.5, 1160,358.5" style="stroke-width: 0.38; stroke-opacity: 1; stroke: rgb(80, 80, 80);"></path><path class="link" marker-end="url(#arrow)" d="M980,558.5, 1160,398.5" style="stroke-width: 0.38; stroke-opacity: 1; stroke: rgb(80, 80, 80);"></path><path class="link" marker-end="url(#arrow)" d="M980,558.5, 1160,438.5" style="stroke-width: 0.38; stroke-opacity: 1; stroke: rgb(80, 80, 80);"></path><path class="link" marker-end="url(#arrow)" d="M980,598.5, 1160,278.5" style="stroke-width: 0.38; stroke-opacity: 1; stroke: rgb(80, 80, 80);"></path><path class="link" marker-end="url(#arrow)" d="M980,598.5, 1160,318.5" style="stroke-width: 0.38; stroke-opacity: 1; stroke: rgb(80, 80, 80);"></path><path class="link" marker-end="url(#arrow)" d="M980,598.5, 1160,358.5" style="stroke-width: 0.38; stroke-opacity: 1; stroke: rgb(80, 80, 80);"></path><path class="link" marker-end="url(#arrow)" d="M980,598.5, 1160,398.5" style="stroke-width: 0.38; stroke-opacity: 1; stroke: rgb(80, 80, 80);"></path><path class="link" marker-end="url(#arrow)" d="M980,598.5, 1160,438.5" style="stroke-width: 0.38; stroke-opacity: 1; stroke: rgb(80, 80, 80);"></path><path class="link" marker-end="url(#arrow)" d="M980,638.5, 1160,278.5" style="stroke-width: 0.38; stroke-opacity: 1; stroke: rgb(80, 80, 80);"></path><path class="link" marker-end="url(#arrow)" d="M980,638.5, 1160,318.5" style="stroke-width: 0.38; stroke-opacity: 1; stroke: rgb(80, 80, 80);"></path><path class="link" marker-end="url(#arrow)" d="M980,638.5, 1160,358.5" style="stroke-width: 0.38; stroke-opacity: 1; stroke: rgb(80, 80, 80);"></path><path class="link" marker-end="url(#arrow)" d="M980,638.5, 1160,398.5" style="stroke-width: 0.38; stroke-opacity: 1; stroke: rgb(80, 80, 80);"></path><path class="link" marker-end="url(#arrow)" d="M980,638.5, 1160,438.5" style="stroke-width: 0.38; stroke-opacity: 1; stroke: rgb(80, 80, 80);"></path><path class="link" marker-end="url(#arrow)" d="M980,678.5, 1160,278.5" style="stroke-width: 0.38; stroke-opacity: 1; stroke: rgb(80, 80, 80);"></path><path class="link" marker-end="url(#arrow)" d="M980,678.5, 1160,318.5" style="stroke-width: 0.38; stroke-opacity: 1; stroke: rgb(80, 80, 80);"></path><path class="link" marker-end="url(#arrow)" d="M980,678.5, 1160,358.5" style="stroke-width: 0.38; stroke-opacity: 1; stroke: rgb(80, 80, 80);"></path><path class="link" marker-end="url(#arrow)" d="M980,678.5, 1160,398.5" style="stroke-width: 0.38; stroke-opacity: 1; stroke: rgb(80, 80, 80);"></path><path class="link" marker-end="url(#arrow)" d="M980,678.5, 1160,438.5" style="stroke-width: 0.38; stroke-opacity: 1; stroke: rgb(80, 80, 80);"></path><path class="link" marker-end="url(#arrow)" d="M980,718.5, 1160,278.5" style="stroke-width: 0.38; stroke-opacity: 1; stroke: rgb(80, 80, 80);"></path><path class="link" marker-end="url(#arrow)" d="M980,718.5, 1160,318.5" style="stroke-width: 0.38; stroke-opacity: 1; stroke: rgb(80, 80, 80);"></path><path class="link" marker-end="url(#arrow)" d="M980,718.5, 1160,358.5" style="stroke-width: 0.38; stroke-opacity: 1; stroke: rgb(80, 80, 80);"></path><path class="link" marker-end="url(#arrow)" d="M980,718.5, 1160,398.5" style="stroke-width: 0.38; stroke-opacity: 1; stroke: rgb(80, 80, 80);"></path><path class="link" marker-end="url(#arrow)" d="M980,718.5, 1160,438.5" style="stroke-width: 0.38; stroke-opacity: 1; stroke: rgb(80, 80, 80);"></path><path class="link" marker-end="url(#arrow)" d="M980,758.5, 1160,278.5" style="stroke-width: 0.38; stroke-opacity: 1; stroke: rgb(80, 80, 80);"></path><path class="link" marker-end="url(#arrow)" d="M980,758.5, 1160,318.5" style="stroke-width: 0.38; stroke-opacity: 1; stroke: rgb(80, 80, 80);"></path><path class="link" marker-end="url(#arrow)" d="M980,758.5, 1160,358.5" style="stroke-width: 0.38; stroke-opacity: 1; stroke: rgb(80, 80, 80);"></path><path class="link" marker-end="url(#arrow)" d="M980,758.5, 1160,398.5" style="stroke-width: 0.38; stroke-opacity: 1; stroke: rgb(80, 80, 80);"></path><path class="link" marker-end="url(#arrow)" d="M980,758.5, 1160,438.5" style="stroke-width: 0.38; stroke-opacity: 1; stroke: rgb(80, 80, 80);"></path><path class="link" marker-end="url(#arrow)" d="M980,798.5, 1160,278.5" style="stroke-width: 0.38; stroke-opacity: 1; stroke: rgb(80, 80, 80);"></path><path class="link" marker-end="url(#arrow)" d="M980,798.5, 1160,318.5" style="stroke-width: 0.38; stroke-opacity: 1; stroke: rgb(80, 80, 80);"></path><path class="link" marker-end="url(#arrow)" d="M980,798.5, 1160,358.5" style="stroke-width: 0.38; stroke-opacity: 1; stroke: rgb(80, 80, 80);"></path><path class="link" marker-end="url(#arrow)" d="M980,798.5, 1160,398.5" style="stroke-width: 0.38; stroke-opacity: 1; stroke: rgb(80, 80, 80);"></path><path class="link" marker-end="url(#arrow)" d="M980,798.5, 1160,438.5" style="stroke-width: 0.38; stroke-opacity: 1; stroke: rgb(80, 80, 80);"></path><path class="link" marker-end="url(#arrow)" d="M980,838.5, 1160,278.5" style="stroke-width: 0.38; stroke-opacity: 1; stroke: rgb(80, 80, 80);"></path><path class="link" marker-end="url(#arrow)" d="M980,838.5, 1160,318.5" style="stroke-width: 0.38; stroke-opacity: 1; stroke: rgb(80, 80, 80);"></path><path class="link" marker-end="url(#arrow)" d="M980,838.5, 1160,358.5" style="stroke-width: 0.38; stroke-opacity: 1; stroke: rgb(80, 80, 80);"></path><path class="link" marker-end="url(#arrow)" d="M980,838.5, 1160,398.5" style="stroke-width: 0.38; stroke-opacity: 1; stroke: rgb(80, 80, 80);"></path><path class="link" marker-end="url(#arrow)" d="M980,838.5, 1160,438.5" style="stroke-width: 0.38; stroke-opacity: 1; stroke: rgb(80, 80, 80);"></path><path class="link" marker-end="url(#arrow)" d="M980,78.5, 1160,478.5" style="stroke-width: 0.38; stroke-opacity: 1; stroke: rgb(80, 80, 80);"></path><path class="link" marker-end="url(#arrow)" d="M980,78.5, 1160,518.5" style="stroke-width: 0.38; stroke-opacity: 1; stroke: rgb(80, 80, 80);"></path><path class="link" marker-end="url(#arrow)" d="M980,78.5, 1160,558.5" style="stroke-width: 0.38; stroke-opacity: 1; stroke: rgb(80, 80, 80);"></path><path class="link" marker-end="url(#arrow)" d="M980,78.5, 1160,598.5" style="stroke-width: 0.38; stroke-opacity: 1; stroke: rgb(80, 80, 80);"></path><path class="link" marker-end="url(#arrow)" d="M980,78.5, 1160,638.5" style="stroke-width: 0.38; stroke-opacity: 1; stroke: rgb(80, 80, 80);"></path><path class="link" marker-end="url(#arrow)" d="M980,118.5, 1160,478.5" style="stroke-width: 0.38; stroke-opacity: 1; stroke: rgb(80, 80, 80);"></path><path class="link" marker-end="url(#arrow)" d="M980,118.5, 1160,518.5" style="stroke-width: 0.38; stroke-opacity: 1; stroke: rgb(80, 80, 80);"></path><path class="link" marker-end="url(#arrow)" d="M980,118.5, 1160,558.5" style="stroke-width: 0.38; stroke-opacity: 1; stroke: rgb(80, 80, 80);"></path><path class="link" marker-end="url(#arrow)" d="M980,118.5, 1160,598.5" style="stroke-width: 0.38; stroke-opacity: 1; stroke: rgb(80, 80, 80);"></path><path class="link" marker-end="url(#arrow)" d="M980,118.5, 1160,638.5" style="stroke-width: 0.38; stroke-opacity: 1; stroke: rgb(80, 80, 80);"></path><path class="link" marker-end="url(#arrow)" d="M980,158.5, 1160,478.5" style="stroke-width: 0.38; stroke-opacity: 1; stroke: rgb(80, 80, 80);"></path><path class="link" marker-end="url(#arrow)" d="M980,158.5, 1160,518.5" style="stroke-width: 0.38; stroke-opacity: 1; stroke: rgb(80, 80, 80);"></path><path class="link" marker-end="url(#arrow)" d="M980,158.5, 1160,558.5" style="stroke-width: 0.38; stroke-opacity: 1; stroke: rgb(80, 80, 80);"></path><path class="link" marker-end="url(#arrow)" d="M980,158.5, 1160,598.5" style="stroke-width: 0.38; stroke-opacity: 1; stroke: rgb(80, 80, 80);"></path><path class="link" marker-end="url(#arrow)" d="M980,158.5, 1160,638.5" style="stroke-width: 0.38; stroke-opacity: 1; stroke: rgb(80, 80, 80);"></path><path class="link" marker-end="url(#arrow)" d="M980,198.5, 1160,478.5" style="stroke-width: 0.38; stroke-opacity: 1; stroke: rgb(80, 80, 80);"></path><path class="link" marker-end="url(#arrow)" d="M980,198.5, 1160,518.5" style="stroke-width: 0.38; stroke-opacity: 1; stroke: rgb(80, 80, 80);"></path><path class="link" marker-end="url(#arrow)" d="M980,198.5, 1160,558.5" style="stroke-width: 0.38; stroke-opacity: 1; stroke: rgb(80, 80, 80);"></path><path class="link" marker-end="url(#arrow)" d="M980,198.5, 1160,598.5" style="stroke-width: 0.38; stroke-opacity: 1; stroke: rgb(80, 80, 80);"></path><path class="link" marker-end="url(#arrow)" d="M980,198.5, 1160,638.5" style="stroke-width: 0.38; stroke-opacity: 1; stroke: rgb(80, 80, 80);"></path><path class="link" marker-end="url(#arrow)" d="M980,238.5, 1160,478.5" style="stroke-width: 0.38; stroke-opacity: 1; stroke: rgb(80, 80, 80);"></path><path class="link" marker-end="url(#arrow)" d="M980,238.5, 1160,518.5" style="stroke-width: 0.38; stroke-opacity: 1; stroke: rgb(80, 80, 80);"></path><path class="link" marker-end="url(#arrow)" d="M980,238.5, 1160,558.5" style="stroke-width: 0.38; stroke-opacity: 1; stroke: rgb(80, 80, 80);"></path><path class="link" marker-end="url(#arrow)" d="M980,238.5, 1160,598.5" style="stroke-width: 0.38; stroke-opacity: 1; stroke: rgb(80, 80, 80);"></path><path class="link" marker-end="url(#arrow)" d="M980,238.5, 1160,638.5" style="stroke-width: 0.38; stroke-opacity: 1; stroke: rgb(80, 80, 80);"></path><path class="link" marker-end="url(#arrow)" d="M980,278.5, 1160,478.5" style="stroke-width: 0.38; stroke-opacity: 1; stroke: rgb(80, 80, 80);"></path><path class="link" marker-end="url(#arrow)" d="M980,278.5, 1160,518.5" style="stroke-width: 0.38; stroke-opacity: 1; stroke: rgb(80, 80, 80);"></path><path class="link" marker-end="url(#arrow)" d="M980,278.5, 1160,558.5" style="stroke-width: 0.38; stroke-opacity: 1; stroke: rgb(80, 80, 80);"></path><path class="link" marker-end="url(#arrow)" d="M980,278.5, 1160,598.5" style="stroke-width: 0.38; stroke-opacity: 1; stroke: rgb(80, 80, 80);"></path><path class="link" marker-end="url(#arrow)" d="M980,278.5, 1160,638.5" style="stroke-width: 0.38; stroke-opacity: 1; stroke: rgb(80, 80, 80);"></path><path class="link" marker-end="url(#arrow)" d="M980,318.5, 1160,478.5" style="stroke-width: 0.38; stroke-opacity: 1; stroke: rgb(80, 80, 80);"></path><path class="link" marker-end="url(#arrow)" d="M980,318.5, 1160,518.5" style="stroke-width: 0.38; stroke-opacity: 1; stroke: rgb(80, 80, 80);"></path><path class="link" marker-end="url(#arrow)" d="M980,318.5, 1160,558.5" style="stroke-width: 0.38; stroke-opacity: 1; stroke: rgb(80, 80, 80);"></path><path class="link" marker-end="url(#arrow)" d="M980,318.5, 1160,598.5" style="stroke-width: 0.38; stroke-opacity: 1; stroke: rgb(80, 80, 80);"></path><path class="link" marker-end="url(#arrow)" d="M980,318.5, 1160,638.5" style="stroke-width: 0.38; stroke-opacity: 1; stroke: rgb(80, 80, 80);"></path><path class="link" marker-end="url(#arrow)" d="M980,358.5, 1160,478.5" style="stroke-width: 0.38; stroke-opacity: 1; stroke: rgb(80, 80, 80);"></path><path class="link" marker-end="url(#arrow)" d="M980,358.5, 1160,518.5" style="stroke-width: 0.38; stroke-opacity: 1; stroke: rgb(80, 80, 80);"></path><path class="link" marker-end="url(#arrow)" d="M980,358.5, 1160,558.5" style="stroke-width: 0.38; stroke-opacity: 1; stroke: rgb(80, 80, 80);"></path><path class="link" marker-end="url(#arrow)" d="M980,358.5, 1160,598.5" style="stroke-width: 0.38; stroke-opacity: 1; stroke: rgb(80, 80, 80);"></path><path class="link" marker-end="url(#arrow)" d="M980,358.5, 1160,638.5" style="stroke-width: 0.38; stroke-opacity: 1; stroke: rgb(80, 80, 80);"></path><path class="link" marker-end="url(#arrow)" d="M980,398.5, 1160,478.5" style="stroke-width: 0.38; stroke-opacity: 1; stroke: rgb(80, 80, 80);"></path><path class="link" marker-end="url(#arrow)" d="M980,398.5, 1160,518.5" style="stroke-width: 0.38; stroke-opacity: 1; stroke: rgb(80, 80, 80);"></path><path class="link" marker-end="url(#arrow)" d="M980,398.5, 1160,558.5" style="stroke-width: 0.38; stroke-opacity: 1; stroke: rgb(80, 80, 80);"></path><path class="link" marker-end="url(#arrow)" d="M980,398.5, 1160,598.5" style="stroke-width: 0.38; stroke-opacity: 1; stroke: rgb(80, 80, 80);"></path><path class="link" marker-end="url(#arrow)" d="M980,398.5, 1160,638.5" style="stroke-width: 0.38; stroke-opacity: 1; stroke: rgb(80, 80, 80);"></path><path class="link" marker-end="url(#arrow)" d="M980,438.5, 1160,478.5" style="stroke-width: 0.38; stroke-opacity: 1; stroke: rgb(80, 80, 80);"></path><path class="link" marker-end="url(#arrow)" d="M980,438.5, 1160,518.5" style="stroke-width: 0.38; stroke-opacity: 1; stroke: rgb(80, 80, 80);"></path><path class="link" marker-end="url(#arrow)" d="M980,438.5, 1160,558.5" style="stroke-width: 0.38; stroke-opacity: 1; stroke: rgb(80, 80, 80);"></path><path class="link" marker-end="url(#arrow)" d="M980,438.5, 1160,598.5" style="stroke-width: 0.38; stroke-opacity: 1; stroke: rgb(80, 80, 80);"></path><path class="link" marker-end="url(#arrow)" d="M980,438.5, 1160,638.5" style="stroke-width: 0.38; stroke-opacity: 1; stroke: rgb(80, 80, 80);"></path><path class="link" marker-end="url(#arrow)" d="M980,478.5, 1160,478.5" style="stroke-width: 0.38; stroke-opacity: 1; stroke: rgb(80, 80, 80);"></path><path class="link" marker-end="url(#arrow)" d="M980,478.5, 1160,518.5" style="stroke-width: 0.38; stroke-opacity: 1; stroke: rgb(80, 80, 80);"></path><path class="link" marker-end="url(#arrow)" d="M980,478.5, 1160,558.5" style="stroke-width: 0.38; stroke-opacity: 1; stroke: rgb(80, 80, 80);"></path><path class="link" marker-end="url(#arrow)" d="M980,478.5, 1160,598.5" style="stroke-width: 0.38; stroke-opacity: 1; stroke: rgb(80, 80, 80);"></path><path class="link" marker-end="url(#arrow)" d="M980,478.5, 1160,638.5" style="stroke-width: 0.38; stroke-opacity: 1; stroke: rgb(80, 80, 80);"></path><path class="link" marker-end="url(#arrow)" d="M980,518.5, 1160,478.5" style="stroke-width: 0.38; stroke-opacity: 1; stroke: rgb(80, 80, 80);"></path><path class="link" marker-end="url(#arrow)" d="M980,518.5, 1160,518.5" style="stroke-width: 0.38; stroke-opacity: 1; stroke: rgb(80, 80, 80);"></path><path class="link" marker-end="url(#arrow)" d="M980,518.5, 1160,558.5" style="stroke-width: 0.38; stroke-opacity: 1; stroke: rgb(80, 80, 80);"></path><path class="link" marker-end="url(#arrow)" d="M980,518.5, 1160,598.5" style="stroke-width: 0.38; stroke-opacity: 1; stroke: rgb(80, 80, 80);"></path><path class="link" marker-end="url(#arrow)" d="M980,518.5, 1160,638.5" style="stroke-width: 0.38; stroke-opacity: 1; stroke: rgb(80, 80, 80);"></path><path class="link" marker-end="url(#arrow)" d="M980,558.5, 1160,478.5" style="stroke-width: 0.38; stroke-opacity: 1; stroke: rgb(80, 80, 80);"></path><path class="link" marker-end="url(#arrow)" d="M980,558.5, 1160,518.5" style="stroke-width: 0.38; stroke-opacity: 1; stroke: rgb(80, 80, 80);"></path><path class="link" marker-end="url(#arrow)" d="M980,558.5, 1160,558.5" style="stroke-width: 0.38; stroke-opacity: 1; stroke: rgb(80, 80, 80);"></path><path class="link" marker-end="url(#arrow)" d="M980,558.5, 1160,598.5" style="stroke-width: 0.38; stroke-opacity: 1; stroke: rgb(80, 80, 80);"></path><path class="link" marker-end="url(#arrow)" d="M980,558.5, 1160,638.5" style="stroke-width: 0.38; stroke-opacity: 1; stroke: rgb(80, 80, 80);"></path><path class="link" marker-end="url(#arrow)" d="M980,598.5, 1160,478.5" style="stroke-width: 0.38; stroke-opacity: 1; stroke: rgb(80, 80, 80);"></path><path class="link" marker-end="url(#arrow)" d="M980,598.5, 1160,518.5" style="stroke-width: 0.38; stroke-opacity: 1; stroke: rgb(80, 80, 80);"></path><path class="link" marker-end="url(#arrow)" d="M980,598.5, 1160,558.5" style="stroke-width: 0.38; stroke-opacity: 1; stroke: rgb(80, 80, 80);"></path><path class="link" marker-end="url(#arrow)" d="M980,598.5, 1160,598.5" style="stroke-width: 0.38; stroke-opacity: 1; stroke: rgb(80, 80, 80);"></path><path class="link" marker-end="url(#arrow)" d="M980,598.5, 1160,638.5" style="stroke-width: 0.38; stroke-opacity: 1; stroke: rgb(80, 80, 80);"></path><path class="link" marker-end="url(#arrow)" d="M980,638.5, 1160,478.5" style="stroke-width: 0.38; stroke-opacity: 1; stroke: rgb(80, 80, 80);"></path><path class="link" marker-end="url(#arrow)" d="M980,638.5, 1160,518.5" style="stroke-width: 0.38; stroke-opacity: 1; stroke: rgb(80, 80, 80);"></path><path class="link" marker-end="url(#arrow)" d="M980,638.5, 1160,558.5" style="stroke-width: 0.38; stroke-opacity: 1; stroke: rgb(80, 80, 80);"></path><path class="link" marker-end="url(#arrow)" d="M980,638.5, 1160,598.5" style="stroke-width: 0.38; stroke-opacity: 1; stroke: rgb(80, 80, 80);"></path><path class="link" marker-end="url(#arrow)" d="M980,638.5, 1160,638.5" style="stroke-width: 0.38; stroke-opacity: 1; stroke: rgb(80, 80, 80);"></path><path class="link" marker-end="url(#arrow)" d="M980,678.5, 1160,478.5" style="stroke-width: 0.38; stroke-opacity: 1; stroke: rgb(80, 80, 80);"></path><path class="link" marker-end="url(#arrow)" d="M980,678.5, 1160,518.5" style="stroke-width: 0.38; stroke-opacity: 1; stroke: rgb(80, 80, 80);"></path><path class="link" marker-end="url(#arrow)" d="M980,678.5, 1160,558.5" style="stroke-width: 0.38; stroke-opacity: 1; stroke: rgb(80, 80, 80);"></path><path class="link" marker-end="url(#arrow)" d="M980,678.5, 1160,598.5" style="stroke-width: 0.38; stroke-opacity: 1; stroke: rgb(80, 80, 80);"></path><path class="link" marker-end="url(#arrow)" d="M980,678.5, 1160,638.5" style="stroke-width: 0.38; stroke-opacity: 1; stroke: rgb(80, 80, 80);"></path><path class="link" marker-end="url(#arrow)" d="M980,718.5, 1160,478.5" style="stroke-width: 0.38; stroke-opacity: 1; stroke: rgb(80, 80, 80);"></path><path class="link" marker-end="url(#arrow)" d="M980,718.5, 1160,518.5" style="stroke-width: 0.38; stroke-opacity: 1; stroke: rgb(80, 80, 80);"></path><path class="link" marker-end="url(#arrow)" d="M980,718.5, 1160,558.5" style="stroke-width: 0.38; stroke-opacity: 1; stroke: rgb(80, 80, 80);"></path><path class="link" marker-end="url(#arrow)" d="M980,718.5, 1160,598.5" style="stroke-width: 0.38; stroke-opacity: 1; stroke: rgb(80, 80, 80);"></path><path class="link" marker-end="url(#arrow)" d="M980,718.5, 1160,638.5" style="stroke-width: 0.38; stroke-opacity: 1; stroke: rgb(80, 80, 80);"></path><path class="link" marker-end="url(#arrow)" d="M980,758.5, 1160,478.5" style="stroke-width: 0.38; stroke-opacity: 1; stroke: rgb(80, 80, 80);"></path><path class="link" marker-end="url(#arrow)" d="M980,758.5, 1160,518.5" style="stroke-width: 0.38; stroke-opacity: 1; stroke: rgb(80, 80, 80);"></path><path class="link" marker-end="url(#arrow)" d="M980,758.5, 1160,558.5" style="stroke-width: 0.38; stroke-opacity: 1; stroke: rgb(80, 80, 80);"></path><path class="link" marker-end="url(#arrow)" d="M980,758.5, 1160,598.5" style="stroke-width: 0.38; stroke-opacity: 1; stroke: rgb(80, 80, 80);"></path><path class="link" marker-end="url(#arrow)" d="M980,758.5, 1160,638.5" style="stroke-width: 0.38; stroke-opacity: 1; stroke: rgb(80, 80, 80);"></path><path class="link" marker-end="url(#arrow)" d="M980,798.5, 1160,478.5" style="stroke-width: 0.38; stroke-opacity: 1; stroke: rgb(80, 80, 80);"></path><path class="link" marker-end="url(#arrow)" d="M980,798.5, 1160,518.5" style="stroke-width: 0.38; stroke-opacity: 1; stroke: rgb(80, 80, 80);"></path><path class="link" marker-end="url(#arrow)" d="M980,798.5, 1160,558.5" style="stroke-width: 0.38; stroke-opacity: 1; stroke: rgb(80, 80, 80);"></path><path class="link" marker-end="url(#arrow)" d="M980,798.5, 1160,598.5" style="stroke-width: 0.38; stroke-opacity: 1; stroke: rgb(80, 80, 80);"></path><path class="link" marker-end="url(#arrow)" d="M980,798.5, 1160,638.5" style="stroke-width: 0.38; stroke-opacity: 1; stroke: rgb(80, 80, 80);"></path><path class="link" marker-end="url(#arrow)" d="M980,838.5, 1160,478.5" style="stroke-width: 0.38; stroke-opacity: 1; stroke: rgb(80, 80, 80);"></path><path class="link" marker-end="url(#arrow)" d="M980,838.5, 1160,518.5" style="stroke-width: 0.38; stroke-opacity: 1; stroke: rgb(80, 80, 80);"></path><path class="link" marker-end="url(#arrow)" d="M980,838.5, 1160,558.5" style="stroke-width: 0.38; stroke-opacity: 1; stroke: rgb(80, 80, 80);"></path><path class="link" marker-end="url(#arrow)" d="M980,838.5, 1160,598.5" style="stroke-width: 0.38; stroke-opacity: 1; stroke: rgb(80, 80, 80);"></path><path class="link" marker-end="url(#arrow)" d="M980,838.5, 1160,638.5" style="stroke-width: 0.38; stroke-opacity: 1; stroke: rgb(80, 80, 80);"></path><path class="link" marker-end="url(#arrow)" d="M800,378.5, 980,78.5" style="stroke-width: 0.38; stroke-opacity: 1; stroke: rgb(80, 80, 80);"></path><path class="link" marker-end="url(#arrow)" d="M800,418.5, 980,78.5" style="stroke-width: 0.38; stroke-opacity: 1; stroke: rgb(80, 80, 80);"></path><path class="link" marker-end="url(#arrow)" d="M800,458.5, 980,78.5" style="stroke-width: 0.38; stroke-opacity: 1; stroke: rgb(80, 80, 80);"></path><path class="link" marker-end="url(#arrow)" d="M800,498.5, 980,78.5" style="stroke-width: 0.38; stroke-opacity: 1; stroke: rgb(80, 80, 80);"></path><path class="link" marker-end="url(#arrow)" d="M800,538.5, 980,78.5" style="stroke-width: 0.38; stroke-opacity: 1; stroke: rgb(80, 80, 80);"></path><circle r="10" class="node" id="0_0" cx="800" cy="378.5" style="fill: rgb(255, 255, 255); stroke: rgb(0, 0, 0);"></circle><circle r="10" class="node" id="0_1" cx="800" cy="418.5" style="fill: rgb(255, 255, 255); stroke: rgb(0, 0, 0);"></circle><circle r="10" class="node" id="0_2" cx="800" cy="458.5" style="fill: rgb(255, 255, 255); stroke: rgb(0, 0, 0);"></circle><circle r="10" class="node" id="0_3" cx="800" cy="498.5" style="fill: rgb(255, 255, 255); stroke: rgb(0, 0, 0);"></circle><circle r="10" class="node" id="0_4" cx="800" cy="538.5" style="fill: rgb(255, 255, 255); stroke: rgb(0, 0, 0);"></circle><circle r="10" class="node" id="1_0" cx="980" cy="78.5" style="fill: rgb(255, 255, 255); stroke: rgb(0, 0, 0);"></circle><circle r="10" class="node" id="1_1" cx="980" cy="118.5" style="fill: rgb(255, 255, 255); stroke: rgb(0, 0, 0);"></circle><circle r="10" class="node" id="1_2" cx="980" cy="158.5" style="fill: rgb(255, 255, 255); stroke: rgb(0, 0, 0);"></circle><circle r="10" class="node" id="1_3" cx="980" cy="198.5" style="fill: rgb(255, 255, 255); stroke: rgb(0, 0, 0);"></circle><circle r="10" class="node" id="1_4" cx="980" cy="238.5" style="fill: rgb(255, 255, 255); stroke: rgb(0, 0, 0);"></circle><circle r="10" class="node" id="1_5" cx="980" cy="278.5" style="fill: rgb(255, 255, 255); stroke: rgb(0, 0, 0);"></circle><circle r="10" class="node" id="1_6" cx="980" cy="318.5" style="fill: rgb(255, 255, 255); stroke: rgb(0, 0, 0);"></circle><circle r="10" class="node" id="1_7" cx="980" cy="358.5" style="fill: rgb(255, 255, 255); stroke: rgb(0, 0, 0);"></circle><circle r="10" class="node" id="1_8" cx="980" cy="398.5" style="fill: rgb(255, 255, 255); stroke: rgb(0, 0, 0);"></circle><circle r="10" class="node" id="1_9" cx="980" cy="438.5" style="fill: rgb(255, 255, 255); stroke: rgb(0, 0, 0);"></circle><circle r="10" class="node" id="1_10" cx="980" cy="478.5" style="fill: rgb(255, 255, 255); stroke: rgb(0, 0, 0);"></circle><circle r="10" class="node" id="1_11" cx="980" cy="518.5" style="fill: rgb(255, 255, 255); stroke: rgb(0, 0, 0);"></circle><circle r="10" class="node" id="1_12" cx="980" cy="558.5" style="fill: rgb(255, 255, 255); stroke: rgb(0, 0, 0);"></circle><circle r="10" class="node" id="1_13" cx="980" cy="598.5" style="fill: rgb(255, 255, 255); stroke: rgb(0, 0, 0);"></circle><circle r="10" class="node" id="1_14" cx="980" cy="638.5" style="fill: rgb(255, 255, 255); stroke: rgb(0, 0, 0);"></circle><circle r="10" class="node" id="1_15" cx="980" cy="678.5" style="fill: rgb(255, 255, 255); stroke: rgb(0, 0, 0);"></circle><circle r="10" class="node" id="1_16" cx="980" cy="718.5" style="fill: rgb(255, 255, 255); stroke: rgb(0, 0, 0);"></circle><circle r="10" class="node" id="1_17" cx="980" cy="758.5" style="fill: rgb(255, 255, 255); stroke: rgb(0, 0, 0);"></circle><circle r="10" class="node" id="1_18" cx="980" cy="798.5" style="fill: rgb(255, 255, 255); stroke: rgb(0, 0, 0);"></circle><circle r="10" class="node" id="1_19" cx="980" cy="838.5" style="fill: rgb(255, 255, 255); stroke: rgb(0, 0, 0);"></circle><circle r="10" class="node" id="2_0" cx="1160" cy="278.5" style="fill: rgb(255, 255, 255); stroke: rgb(0, 0, 0);"></circle><circle r="10" class="node" id="2_1" cx="1160" cy="318.5" style="fill: rgb(255, 255, 255); stroke: rgb(0, 0, 0);"></circle><circle r="10" class="node" id="2_2" cx="1160" cy="358.5" style="fill: rgb(255, 255, 255); stroke: rgb(0, 0, 0);"></circle><circle r="10" class="node" id="2_3" cx="1160" cy="398.5" style="fill: rgb(255, 255, 255); stroke: rgb(0, 0, 0);"></circle><circle r="10" class="node" id="2_4" cx="1160" cy="438.5" style="fill: rgb(255, 255, 255); stroke: rgb(0, 0, 0);"></circle><text class="text" dy=".35em" x="765" y="878.5" style="font-size: 12px;"></text><text class="text" dy=".35em" x="945" y="878.5" style="font-size: 12px;"></text><text class="text" dy=".35em" x="1125" y="878.5" style="font-size: 12px;"></text><circle r="10" class="node" id="2_5" cx="1160" cy="478.5" style="fill: rgb(255, 255, 255); stroke: rgb(0, 0, 0);"></circle><circle r="10" class="node" id="2_6" cx="1160" cy="518.5" style="fill: rgb(255, 255, 255); stroke: rgb(0, 0, 0);"></circle><circle r="10" class="node" id="2_7" cx="1160" cy="558.5" style="fill: rgb(255, 255, 255); stroke: rgb(0, 0, 0);"></circle><circle r="10" class="node" id="2_8" cx="1160" cy="598.5" style="fill: rgb(255, 255, 255); stroke: rgb(0, 0, 0);"></circle><circle r="10" class="node" id="2_9" cx="1160" cy="638.5" style="fill: rgb(255, 255, 255); stroke: rgb(0, 0, 0);"></circle></g><defs><marker id="arrow" viewBox="0 -5 10 10" markerWidth="7" markerHeight="7" orient="auto" refX="40"><path d="M0,-5L10,0L0,5" style="stroke: rgb(80, 80, 80); fill: none;"></path></marker></defs></svg>